<?xml version="1.0" encoding="utf-8"?>
<!-- Generator: Adobe Illustrator 25.2.3, SVG Export Plug-In . SVG Version: 6.00 Build 0)  -->
<svg version="1.1" id="Layer_1" xmlns="http://www.w3.org/2000/svg" xmlns:xlink="http://www.w3.org/1999/xlink" x="0px" y="0px"
	 viewBox="0 0 1000 1000" style="enable-background:new 0 0 1000 1000;" xml:space="preserve">
<style type="text/css">
	.st0{fill:#BBC5CC;}
</style>
<path class="st0" d="M913.8,800.4c-2.4-41.9-13.5-76.9-53-97.4c-11.2-5.8-22.5-11.7-34.2-16.4c-45.5-18.4-91.2-36.4-136.9-54.5
	c-21.6-8.6-23.2-7.9-29.2,14.6c-28.8,108.1-57.6,216.3-86.3,324.4c-1.5,5.6-2,11.5-6.9,17.5c-1.2-5.1-2.4-8.6-2.8-12.1
	c-6.4-54.1-13.4-108.1-18.9-162.2c-4.7-46.3-18.2-92.9,1.8-139c3.4-7.9-2.7-8.3-8.5-8.3c-23.8,0.1-47.7,0.6-71.5-0.2
	c-12.7-0.4-17.3,1.9-12.3,15.6c9.1,25.1,11.9,50.8,6.5,77.6c-4.3,21.7-5.8,44-8.5,66c-6.7,53.9-13.4,107.8-20.1,161.6h-3
	c-0.9-2.4-1.9-4.7-2.6-7.1C398,870,368.5,759.4,339,648.7c-6.3-23.5-8.9-24.8-31.8-15.8c-44.7,17.7-89.3,35.4-134,53.2
	c-20.3,8.1-39.1,18.6-55.6,33.1C101.5,733.3,90.7,750,88.7,772C83.3,831,77,889.9,71.9,948.9c-3,35.4,12.5,51.2,47.7,51.1
	c100.1-0.1,200.1-0.1,300.2-0.1c154.6,0,309.2,0.1,463.8-0.1c30.7,0,48.1-19.3,45.1-47.9C923.4,901.5,916.7,851.1,913.8,800.4
	L913.8,800.4z M320.6,427.4c2.6,0.7,2.9,2.8,3.5,4.8c8.8,29.8,21.5,57.9,39,83.6c34.7,50.6,82.2,78.7,144.4,77.9
	c31.3-0.4,59.5-12.6,85.1-30.1c30.5-20.8,50.1-50.5,66.1-82.9c7.7-15.6,14.3-31.7,18.9-48.5c0.5-1.9,0.7-4.3,3.3-5
	c13.4-3.7,21.1-13.6,25.4-25.8c4.8-13.8,12.6-26.6,14.3-41.4c2.1-19.3-0.3-37.4-14.8-52c-1.6-1.6-1.7-3.2-1.5-5.2
	c3.1-41.6,5.8-83.3,3-125.1c-1.5-23.2-4.9-46.1-17.1-66.7c-7.3-12.3-18.1-21.6-27.9-31.6c-13.4-13.7-27.5-26.7-44-36.6
	c-2.8-1.7-2.7-3.7-2-6.3c1.9-7.4,1.8-7.4-5.9-7.7c-6.4-0.2-12.8-0.6-19.1-0.5c-4.1,0-5.1-1.4-3.8-5.3c1.1-3,1.7-6.2,2.7-10.3
	c-8.8,2.7-16.7,5.1-25.7,7.8c2.7-7.4,5-13.9,7.4-20.3h-1.2c-12.3,6.5-25.2,11.9-38.3,15.7c-8.6,2.5-18.4,0.3-27.7,0.6
	C466.6,17.7,431.5,29,399.2,49c-8.6,5.3-16.5,11.5-24.4,17.6c-9.2,7.1-20.5,10.7-30.8,15.9c-7.8,4-6.1,3.3-2.4,8.6
	c4.8,6.7,4.9,6.8-3,10c-7.8,3.2-15.7,6.4-24,9.7c3.5,3.5,7.7,5.2,11.5,7.6c5.5,3.3,5.6,3.5,0.7,7.4c-6.3,5.1-12.7,10.1-19,15.3
	c-0.8,0.7-2.1,1.1-2,2.7c4.3,0.8,8.3-0.8,12.4-1.2c3.6-0.3,4.2,0.5,3.3,4c-4.2,14.9-7.4,29.9-9.9,45.2c-5.4,33.1-7.3,66.4-8.5,99.8
	c0,1.1,0,2.4,0.3,3.5c1.3,4.7-0.3,7.5-4.6,10.2c-11.5,7.2-15.6,19.1-18,31.8c-0.3,1.5,0.1,3.1-1.3,4.3v17.4
	c2.8,13.9,9.3,26.4,13.9,39.7C298,411.8,305.6,423.3,320.6,427.4L320.6,427.4z M301.7,327.2c1-2,2.1-4.2,5.1-5.3
	c1.7,10.2,4.1,20.1,4.8,30.1c0.6,7.4,3.4,10.5,10.7,11.9c10.7,2,10.3,2.6,9.6-8c-0.9-14.9,0.6-29.8,1.2-44.6
	c0.5-13.7,1.1-27.5,0.7-41.2c-1.1-37.9,5.9-74.6,14.9-111.1c2.4-9.7,8.2-17.3,15.7-21c-3.1,7.5-5.8,14.6-6,23.2
	c5.5-4.8,9.1-10,12.9-15c5.3-7,12.4-10,20.9-10.7c14-1.1,28.3,0.7,42.1-3.1c7.3-2,14.7-3.7,21.4-7.2c13.2-7,27.7-3.9,41.5-5.7
	c3.7-0.5,3.2,2.7,3.2,4.8c0.1,8-2.9,15.1-6.4,22c-3.3,6.5-7.4,12.5-11.1,19c21.1-7.8,39.9-19,54.8-36.5c5,7.1,5,14.3,3.2,22
	c-1.8,7.4-6,13.7-10,21.1c11.1-2.9,20.6-7.6,29.7-12.9c13-7.5,24.8-16.5,35-27.5c2.7-2.9,4-2.4,6.1,0.5c5.5,7.7,7.8,16.2,7.7,25.6
	c0,1.9-1.3,4.8,1.1,5.6c2.1,0.7,3.8-1.6,5.2-3.1c5.6-6.2,10.1-13.1,14.4-20.3c0.5-0.8,1.1-1.6,2.1-3.1c4.1,11.7,7.7,22.6,2.1,34.1
	c-0.6,1.3-2.5,2.4-1.1,4c1.1,1.2,2.8,1.2,4.4,1c4.7-0.6,9-2.3,13.2-4.2c2.1-0.9,4.2-1.8,6.4-2.8c2.4,11.1-3.6,20.5-23.8,37.4
	c13,0.8,24.6-0.7,35.2-9.8c-1.7,13.3-2.4,25.6-3.1,37.9c-0.4,7.6-0.1,15.1,1.7,22.5c7.8,31.9,8.9,64.2,6.1,96.7L673,357
	c-1.7,11.5-1.7,11.5,9.7,10.7c9.6-0.7,9.7-0.6,11.7-9.9c1.9-8.8,3.8-17.7,6.1-28.2c3.6,9.1,4.7,17.1,3.8,25.3
	c-0.3,3.2-0.9,6.6-2,9.6c-4,11-7.9,22.1-12.7,32.9c-3.9,8.7-9.7,15.6-21,13.4c-3.7-0.7-3.2,2.5-3.8,4.5c-6.7,26.4-16.9,51.3-30.1,75
	c-22.2,39.8-53.7,68.2-98.1,81.4c-35.7,10.6-69.1,4.1-101.3-12.5c-29.2-15-49.9-38.6-66.1-66.5c-14.2-24.5-24.9-50.5-31.6-78.1
	c-0.6-2.5-0.9-4.8-4.7-3.9c-9,2.1-15.6-2.5-18.9-9.9c-6.2-14.2-13.5-28.2-16.3-43.7C295.5,346.7,297,336.6,301.7,327.2L301.7,327.2z
	"/>
</svg>
