<svg xmlns="http://www.w3.org/2000/svg" viewBox="0 0 420.78 65.68"><defs><style>.cls-1{fill:#fff;}.cls-2{fill:#98989a;}.cls-3{fill:#e7004c;}.cls-4{fill:#0047ba;}.cls-5{fill:#76bc21;}</style></defs><g id="Layer_2" data-name="Layer 2"><g id="Capa_1" data-name="Capa 1"><path class="cls-1" d="M123.62,33.1c-.12-.15-.38-.22-.78-.22H108a4.54,4.54,0,0,1-3-.89,3.73,3.73,0,0,1-1.08-3V24.64H97.18V29a14.88,14.88,0,0,0,.44,3.7,8,8,0,0,0,1.55,3.15,7.77,7.77,0,0,0,3,2.21,11.79,11.79,0,0,0,4.77.83h15.91c.4,0,.66-.08.78-.25a1.5,1.5,0,0,0,.16-.8V33.92a1.44,1.44,0,0,0-.16-.82"/><path class="cls-1" d="M371.91,33.1c-.11-.15-.37-.22-.78-.22H356.28a4.57,4.57,0,0,1-3-.89,3.73,3.73,0,0,1-1.08-3V24.64h-6.76V29a14.88,14.88,0,0,0,.45,3.7,8,8,0,0,0,1.55,3.15,7.7,7.7,0,0,0,3,2.21,11.76,11.76,0,0,0,4.77.83h15.9c.41,0,.67-.08.78-.25a1.49,1.49,0,0,0,.17-.8V33.92a1.43,1.43,0,0,0-.17-.82"/><path class="cls-1" d="M0,24.62v13c0,.47.11.79.33.93a1.67,1.67,0,0,0,.94.23H5.49a1.79,1.79,0,0,0,1-.2c.17-.13.25-.45.25-1v-13Z"/><path class="cls-1" d="M273.92,32.76H258.84a4,4,0,0,1-2.91-.9,3.62,3.62,0,0,1-.91-2.67V24.62h-6.76V29a14.94,14.94,0,0,0,.44,3.7A7.74,7.74,0,0,0,253.3,38a11.92,11.92,0,0,0,4.82.83h15.8a1.07,1.07,0,0,0,.94-.33,1.71,1.71,0,0,0,.22-.95V34.1a2,2,0,0,0-.19-1.06c-.13-.18-.45-.28-1-.28"/><path class="cls-1" d="M203.31,32.76V.1l-3.66,0a3.1,3.1,0,0,0-2.44.77,3.59,3.59,0,0,0-.66,2.37V35.69a3.6,3.6,0,0,0,.66,2.41,3.22,3.22,0,0,0,2.44.74h3.66Z"/><path class="cls-1" d="M325,33.1c-.11-.15-.37-.22-.77-.22H309.32a4.53,4.53,0,0,1-3-.89,3.7,3.7,0,0,1-1.09-3V24.64h-6.76V29a14.88,14.88,0,0,0,.45,3.7,8,8,0,0,0,1.55,3.15,7.7,7.7,0,0,0,3,2.21,11.79,11.79,0,0,0,4.77.83h15.91c.4,0,.66-.08.77-.25a1.49,1.49,0,0,0,.17-.8V33.92a1.43,1.43,0,0,0-.17-.82"/><path class="cls-1" d="M416,24.64H391.27l-4.47,13a1,1,0,0,0,0,.8q.17.36.78.36h5.1a1.68,1.68,0,0,0,1-.22,1.44,1.44,0,0,0,.47-.72l2.44-7.51h14.08L413.08,38a1.12,1.12,0,0,0,.58.74,2.59,2.59,0,0,0,1,.14h5.1q.6,0,.75-.36a1.11,1.11,0,0,0,0-.8Z"/><path class="cls-1" d="M103.94,21.8V1.28c0-.52-.1-.84-.28-1a2,2,0,0,0-1-.19H98.45a1.66,1.66,0,0,0-1,.22,1.13,1.13,0,0,0-.31.94V21.8Z"/><path class="cls-1" d="M305.27,21.8V1.28c0-.52-.09-.84-.27-1A2,2,0,0,0,304,.12h-4.16a1.63,1.63,0,0,0-1,.22c-.21.15-.31.46-.31.94V21.8Z"/><path class="cls-1" d="M352.23,21.8V1.28c0-.52-.09-.84-.27-1A2,2,0,0,0,350.9.12h-4.15a1.63,1.63,0,0,0-1,.22c-.21.15-.31.46-.31.94V21.8Z"/><path class="cls-1" d="M26.41.36c-.13-.2-.45-.3-1-.3H9.87A11.81,11.81,0,0,0,5.15.89a8.2,8.2,0,0,0-3,2.21A7.94,7.94,0,0,0,.47,6.27,14.89,14.89,0,0,0,0,10V21.77H23.39c.48,0,.79-.11.92-.33a2,2,0,0,0,.19-.94V17.35a1.9,1.9,0,0,0-.19-1c-.13-.17-.44-.25-.92-.25H6.76V9.62a3.78,3.78,0,0,1,.86-2.68,4,4,0,0,1,3-.91H25.44a1.19,1.19,0,0,0,.94-.28,1.59,1.59,0,0,0,.23-1V1.33a1.87,1.87,0,0,0-.2-1"/><path class="cls-1" d="M271.78,21.8c.46,0,.77-.1.89-.3a1.85,1.85,0,0,0,.2-1v-3a2,2,0,0,0-.2-1c-.13-.18-.43-.27-.91-.27H255V9.73A3.9,3.9,0,0,1,255.88,7a3.86,3.86,0,0,1,3-.94h14.75c.48,0,.78-.08.91-.25a1.65,1.65,0,0,0,.2-1V1.39a1.82,1.82,0,0,0-.2-1c-.13-.2-.43-.3-.91-.3H258.12a11.27,11.27,0,0,0-4.54.82,8.64,8.64,0,0,0-3.08,2.21,8.47,8.47,0,0,0-1.72,3.18,13.23,13.23,0,0,0-.52,3.73V21.8Z"/><path class="cls-1" d="M225.79,24.26a10.81,10.81,0,0,0-1.08-2.71,8.72,8.72,0,0,0-1.89-2.29,9,9,0,0,0-2.71-1.63v-.39a8.66,8.66,0,0,0,3.13-3.07,8.37,8.37,0,0,0,1.24-4.5,9.61,9.61,0,0,0-.91-4.36,8.07,8.07,0,0,0-2.5-3A10.57,10.57,0,0,0,217.28.61a19.63,19.63,0,0,0-4.77-.55l-6.35,0v6h6.46a5.12,5.12,0,0,1,3.52,1.16,4,4,0,0,1,1.3,3.15,5,5,0,0,1-.49,2.4,4.08,4.08,0,0,1-1.28,1.44A4.78,4.78,0,0,1,214,15a8.1,8.1,0,0,1-1.69.19h-6.13v5.58h6.35a6.71,6.71,0,0,1,5,1.69,5.82,5.82,0,0,1,1.69,4.33,7.55,7.55,0,0,1-.3,2,5.06,5.06,0,0,1-1.08,2,5.88,5.88,0,0,1-2.05,1.46,7.88,7.88,0,0,1-3.27.58h-6.3v6.08h7a15.23,15.23,0,0,0,5.07-.83,12.25,12.25,0,0,0,4.1-2.37,11.53,11.53,0,0,0,2.77-3.7,10.85,10.85,0,0,0,1-4.76,11.91,11.91,0,0,0-.36-2.92"/><path class="cls-1" d="M399,21.76l4.35-14.27h.24L408,21.76h6.93L408.18,2a3,3,0,0,0-2.82-2h-3.51A3,3,0,0,0,399,2l-6.77,19.74Z"/><path class="cls-1" d="M170.73,24.64H146l-4.46,13a1,1,0,0,0,0,.8c.11.24.37.36.77.36h5.1a1.63,1.63,0,0,0,1-.22,1.45,1.45,0,0,0,.48-.72l2.43-7.51H165.4L167.84,38a1.15,1.15,0,0,0,.58.74,2.68,2.68,0,0,0,1,.14h5.09q.62,0,.75-.36a1.11,1.11,0,0,0,0-.8Z"/><path class="cls-1" d="M153.81,21.76l4.35-14.27h.24l4.37,14.27h6.92L163,2a3,3,0,0,0-2.83-2h-3.51a3,3,0,0,0-2.82,2L147,21.76Z"/><path class="cls-1" d="M71.79,24.64H47.1l-4.47,13a1,1,0,0,0,0,.8q.16.36.78.36h5.1a1.66,1.66,0,0,0,1-.22A1.44,1.44,0,0,0,50,37.9l2.44-7.51H66.47L68.91,38a1.12,1.12,0,0,0,.58.74,2.59,2.59,0,0,0,1,.14h5.1q.6,0,.75-.36a1.11,1.11,0,0,0,0-.8Z"/><path class="cls-1" d="M54.87,21.76,59.22,7.49h.24l4.38,14.27h6.92L64,2a3,3,0,0,0-2.83-2H57.68a3,3,0,0,0-2.83,2L48.08,21.76Z"/><path class="cls-2" d="M312.05,58.91a6.79,6.79,0,1,1-6.79-6.77,6.78,6.78,0,0,1,6.79,6.77"/><path class="cls-3" d="M348.29,58.91a6.79,6.79,0,1,1-6.78-6.77,6.78,6.78,0,0,1,6.78,6.77"/><path class="cls-4" d="M384.54,58.91a6.79,6.79,0,1,1-6.79-6.77,6.78,6.78,0,0,1,6.79,6.77"/><path class="cls-5" d="M420.78,58.91A6.79,6.79,0,1,1,414,52.14a6.78,6.78,0,0,1,6.79,6.77"/></g></g></svg>