<?xml version="1.0" encoding="UTF-8"?>
<svg width="40px" height="40px" viewBox="0 0 40 40" version="1.1" xmlns="http://www.w3.org/2000/svg" xmlns:xlink="http://www.w3.org/1999/xlink">
    <title>State-5_active</title>
    <g id="Start-here" stroke="none" stroke-width="1" fill="none" fill-rule="evenodd">
        <g id="1.5-Create-Workflow" transform="translate(-1203.000000, -585.000000)">
            <g id="State-5_active" transform="translate(1203.000000, 585.000000)">
                <circle id="Oval" fill="#0058A3" cx="20" cy="20" r="20"></circle>
                <g id="Number" transform="translate(14.511719, 10.937500)" fill="#FFFFFF" fill-rule="nonzero">
                    <path d="M0.52734375,8.6015625 L1.453125,0 L10.6171875,0 L10.6171875,2.4609375 L3.8203125,2.4609375 L3.3515625,6.5390625 C4.140625,6.0859375 5.03125,5.859375 6.0234375,5.859375 C7.6484375,5.859375 8.91210938,6.37890625 9.81445312,7.41796875 C10.7167969,8.45703125 11.1679688,9.85546875 11.1679688,11.6132812 C11.1679688,13.3476562 10.6679688,14.7285156 9.66796875,15.7558594 C8.66796875,16.7832031 7.296875,17.296875 5.5546875,17.296875 C3.9921875,17.296875 2.69726562,16.8535156 1.66992187,15.9667969 C0.642578125,15.0800781 0.0859375,13.9101562 0,12.4570312 L2.75390625,12.4570312 C2.86328125,13.2851562 3.16015625,13.9199219 3.64453125,14.3613281 C4.12890625,14.8027344 4.76171875,15.0234375 5.54296875,15.0234375 C6.41796875,15.0234375 7.09960938,14.7109375 7.58789062,14.0859375 C8.07617188,13.4609375 8.3203125,12.609375 8.3203125,11.53125 C8.3203125,10.4921875 8.05078125,9.66992188 7.51171875,9.06445312 C6.97265625,8.45898438 6.23046875,8.15625 5.28515625,8.15625 C4.76953125,8.15625 4.33203125,8.22460938 3.97265625,8.36132812 C3.61328125,8.49804688 3.22265625,8.765625 2.80078125,9.1640625 L0.52734375,8.6015625 Z" id="Path"></path>
                </g>
            </g>
        </g>
    </g>
</svg>